<mxfile host="app.diagrams.net" modified="2023-01-24T22:40:43.197Z" agent="5.0 (Windows NT 10.0; Win64; x64) AppleWebKit/537.36 (KHTML, like Gecko) Chrome/109.0.0.0 Safari/537.36" version="20.8.3" etag="LRveCHXz7aOLC8n2I4Uz" type="github">
  <diagram id="esHJZd4GQtQjTltmYTkH" name="Page-1">
    <mxGraphModel dx="1050" dy="623" grid="1" gridSize="12" guides="1" tooltips="1" connect="1" arrows="1" fold="1" page="1" pageScale="1" pageWidth="850" pageHeight="1100" math="0" shadow="0">
      <root>
        <mxCell id="0" />
        <mxCell id="1" parent="0" />
        <mxCell id="MHEAixP1fu__zyl8-HPN-21" style="edgeStyle=orthogonalEdgeStyle;rounded=0;orthogonalLoop=1;jettySize=auto;html=1;exitX=0;exitY=1;exitDx=0;exitDy=0;entryX=0.837;entryY=0.019;entryDx=0;entryDy=0;entryPerimeter=0;fontSize=18;" edge="1" parent="1" source="MHEAixP1fu__zyl8-HPN-2" target="MHEAixP1fu__zyl8-HPN-9">
          <mxGeometry relative="1" as="geometry" />
        </mxCell>
        <mxCell id="MHEAixP1fu__zyl8-HPN-22" style="edgeStyle=orthogonalEdgeStyle;rounded=0;orthogonalLoop=1;jettySize=auto;html=1;exitX=0;exitY=0.5;exitDx=0;exitDy=0;entryX=0.11;entryY=-0.058;entryDx=0;entryDy=0;entryPerimeter=0;fontSize=18;" edge="1" parent="1" source="MHEAixP1fu__zyl8-HPN-2" target="MHEAixP1fu__zyl8-HPN-9">
          <mxGeometry relative="1" as="geometry" />
        </mxCell>
        <mxCell id="MHEAixP1fu__zyl8-HPN-2" value="Post Rent" style="ellipse;whiteSpace=wrap;html=1;aspect=fixed;" vertex="1" parent="1">
          <mxGeometry x="345" y="288" width="80" height="80" as="geometry" />
        </mxCell>
        <mxCell id="MHEAixP1fu__zyl8-HPN-13" style="edgeStyle=orthogonalEdgeStyle;rounded=0;orthogonalLoop=1;jettySize=auto;html=1;fontSize=18;" edge="1" parent="1" source="MHEAixP1fu__zyl8-HPN-3">
          <mxGeometry relative="1" as="geometry">
            <mxPoint x="564" y="180" as="targetPoint" />
          </mxGeometry>
        </mxCell>
        <mxCell id="MHEAixP1fu__zyl8-HPN-3" value="Add Room" style="ellipse;whiteSpace=wrap;html=1;aspect=fixed;" vertex="1" parent="1">
          <mxGeometry x="350" y="140" width="80" height="80" as="geometry" />
        </mxCell>
        <mxCell id="MHEAixP1fu__zyl8-HPN-17" style="edgeStyle=orthogonalEdgeStyle;rounded=0;orthogonalLoop=1;jettySize=auto;html=1;exitX=1;exitY=0.5;exitDx=0;exitDy=0;entryX=0.5;entryY=1;entryDx=0;entryDy=0;fontSize=18;" edge="1" parent="1" source="MHEAixP1fu__zyl8-HPN-4" target="MHEAixP1fu__zyl8-HPN-6">
          <mxGeometry relative="1" as="geometry" />
        </mxCell>
        <mxCell id="MHEAixP1fu__zyl8-HPN-19" style="edgeStyle=orthogonalEdgeStyle;rounded=0;orthogonalLoop=1;jettySize=auto;html=1;fontSize=18;" edge="1" parent="1" source="MHEAixP1fu__zyl8-HPN-4">
          <mxGeometry relative="1" as="geometry">
            <mxPoint x="192" y="472" as="targetPoint" />
          </mxGeometry>
        </mxCell>
        <mxCell id="MHEAixP1fu__zyl8-HPN-4" value="Search Rent" style="ellipse;whiteSpace=wrap;html=1;aspect=fixed;" vertex="1" parent="1">
          <mxGeometry x="350" y="432" width="80" height="80" as="geometry" />
        </mxCell>
        <mxCell id="MHEAixP1fu__zyl8-HPN-10" style="edgeStyle=orthogonalEdgeStyle;rounded=0;orthogonalLoop=1;jettySize=auto;html=1;entryX=0.5;entryY=0;entryDx=0;entryDy=0;fontSize=18;" edge="1" parent="1" target="MHEAixP1fu__zyl8-HPN-3">
          <mxGeometry relative="1" as="geometry">
            <mxPoint x="120" y="168" as="sourcePoint" />
            <Array as="points">
              <mxPoint x="120" y="120" />
              <mxPoint x="390" y="120" />
            </Array>
          </mxGeometry>
        </mxCell>
        <mxCell id="MHEAixP1fu__zyl8-HPN-24" style="edgeStyle=orthogonalEdgeStyle;rounded=0;orthogonalLoop=1;jettySize=auto;html=1;exitX=0.5;exitY=1;exitDx=0;exitDy=0;entryX=0;entryY=0;entryDx=0;entryDy=0;fontSize=18;" edge="1" parent="1" source="MHEAixP1fu__zyl8-HPN-5" target="MHEAixP1fu__zyl8-HPN-2">
          <mxGeometry relative="1" as="geometry">
            <Array as="points">
              <mxPoint x="120" y="300" />
            </Array>
          </mxGeometry>
        </mxCell>
        <mxCell id="MHEAixP1fu__zyl8-HPN-5" value="Owner" style="rounded=1;whiteSpace=wrap;html=1;strokeWidth=2;fontSize=18;fontStyle=1" vertex="1" parent="1">
          <mxGeometry x="60" y="170" width="120" height="60" as="geometry" />
        </mxCell>
        <mxCell id="MHEAixP1fu__zyl8-HPN-16" style="edgeStyle=orthogonalEdgeStyle;rounded=0;orthogonalLoop=1;jettySize=auto;html=1;fontSize=18;" edge="1" parent="1" source="MHEAixP1fu__zyl8-HPN-6" target="MHEAixP1fu__zyl8-HPN-4">
          <mxGeometry relative="1" as="geometry" />
        </mxCell>
        <mxCell id="MHEAixP1fu__zyl8-HPN-6" value="Tenant" style="rounded=1;whiteSpace=wrap;html=1;" vertex="1" parent="1">
          <mxGeometry x="580" y="348" width="120" height="60" as="geometry" />
        </mxCell>
        <mxCell id="MHEAixP1fu__zyl8-HPN-11" style="edgeStyle=orthogonalEdgeStyle;rounded=0;orthogonalLoop=1;jettySize=auto;html=1;entryX=0.03;entryY=0.297;entryDx=0;entryDy=0;entryPerimeter=0;fontSize=18;" edge="1" parent="1" source="MHEAixP1fu__zyl8-HPN-7" target="MHEAixP1fu__zyl8-HPN-3">
          <mxGeometry relative="1" as="geometry">
            <Array as="points">
              <mxPoint x="288" y="164" />
            </Array>
          </mxGeometry>
        </mxCell>
        <mxCell id="MHEAixP1fu__zyl8-HPN-7" value="Upazila" style="shape=partialRectangle;whiteSpace=wrap;html=1;left=0;right=0;fillColor=none;" vertex="1" parent="1">
          <mxGeometry x="220" y="210" width="120" height="54" as="geometry" />
        </mxCell>
        <mxCell id="MHEAixP1fu__zyl8-HPN-14" style="edgeStyle=orthogonalEdgeStyle;rounded=0;orthogonalLoop=1;jettySize=auto;html=1;exitX=0.25;exitY=1;exitDx=0;exitDy=0;entryX=0.78;entryY=0.072;entryDx=0;entryDy=0;entryPerimeter=0;fontSize=18;" edge="1" parent="1" source="MHEAixP1fu__zyl8-HPN-8" target="MHEAixP1fu__zyl8-HPN-2">
          <mxGeometry relative="1" as="geometry" />
        </mxCell>
        <mxCell id="MHEAixP1fu__zyl8-HPN-8" value="Rooms" style="shape=partialRectangle;whiteSpace=wrap;html=1;left=0;right=0;fillColor=none;" vertex="1" parent="1">
          <mxGeometry x="570" y="150" width="120" height="54" as="geometry" />
        </mxCell>
        <mxCell id="MHEAixP1fu__zyl8-HPN-20" style="edgeStyle=orthogonalEdgeStyle;rounded=0;orthogonalLoop=1;jettySize=auto;html=1;exitX=0.5;exitY=1;exitDx=0;exitDy=0;entryX=0.5;entryY=1;entryDx=0;entryDy=0;fontSize=18;" edge="1" parent="1" source="MHEAixP1fu__zyl8-HPN-9" target="MHEAixP1fu__zyl8-HPN-4">
          <mxGeometry relative="1" as="geometry" />
        </mxCell>
        <mxCell id="MHEAixP1fu__zyl8-HPN-9" value="Rents" style="shape=partialRectangle;whiteSpace=wrap;html=1;left=0;right=0;fillColor=none;" vertex="1" parent="1">
          <mxGeometry x="60" y="446" width="120" height="52" as="geometry" />
        </mxCell>
        <mxCell id="MHEAixP1fu__zyl8-HPN-12" style="edgeStyle=orthogonalEdgeStyle;rounded=0;orthogonalLoop=1;jettySize=auto;html=1;exitX=0.5;exitY=1;exitDx=0;exitDy=0;fontSize=18;" edge="1" parent="1" source="MHEAixP1fu__zyl8-HPN-7" target="MHEAixP1fu__zyl8-HPN-7">
          <mxGeometry relative="1" as="geometry" />
        </mxCell>
        <mxCell id="MHEAixP1fu__zyl8-HPN-25" value="rent&lt;br&gt;details" style="text;html=1;align=center;verticalAlign=middle;resizable=0;points=[];autosize=1;strokeColor=none;fillColor=none;fontSize=18;" vertex="1" parent="1">
          <mxGeometry x="60" y="336" width="84" height="60" as="geometry" />
        </mxCell>
        <mxCell id="MHEAixP1fu__zyl8-HPN-26" value="room&lt;br&gt;reference" style="text;html=1;align=center;verticalAlign=middle;resizable=0;points=[];autosize=1;strokeColor=none;fillColor=none;fontSize=18;" vertex="1" parent="1">
          <mxGeometry x="168" y="348" width="108" height="60" as="geometry" />
        </mxCell>
      </root>
    </mxGraphModel>
  </diagram>
</mxfile>
